<svg width="1253" height="760" viewBox="0 0 1253 760" fill="none" xmlns="http://www.w3.org/2000/svg">
<rect width="1253" height="760" fill="#05ADE5"/>
<rect width="8" height="652" transform="translate(377)" fill="black"/>
<rect width="8" height="553.943" transform="translate(377.058 174.107) rotate(-90.4129)" fill="black"/>
<rect width="8" height="352.005" transform="translate(389.014 295.949) rotate(-90.4129)" fill="black"/>
<rect width="8" height="556.043" transform="translate(381.014 418.007) rotate(-90.4129)" fill="black"/>
<rect width="8" height="556.072" transform="translate(380.986 92.007) rotate(-90.4129)" fill="black"/>
<rect width="8" height="557.001" transform="translate(376.058 12.1074) rotate(-90.4129)" fill="black"/>
<rect width="8" height="361.861" transform="translate(383.007 538.992) rotate(-90.4129)" fill="black"/>
<rect width="8" height="556.028" transform="translate(381.029 660.007) rotate(-90.4129)" fill="black"/>
<rect width="8" height="570" transform="translate(497 82)" fill="black"/>
<rect width="8" height="570" transform="translate(497 82)" fill="black"/>
<rect width="8" height="654" transform="translate(929)" fill="black"/>
<path d="M828.091 541.545V536.636H856.091V541.545H828.091ZM828.091 555V550.091H856.091V555H828.091Z" fill="white"/>
<path d="M831.545 302.818V272.818H836.636V302.818H831.545ZM819.091 290.364V285.273H849.091V290.364H819.091Z" fill="white"/>
<path d="M838.909 121.545V126.545H818.545V121.545H838.909Z" fill="white"/>
<rect width="8" height="570" transform="translate(617 82)" fill="black"/>
<rect width="8" height="570" transform="translate(737 82)" fill="black"/>
<path d="M434.273 256L455.091 214.818V214.455H431.091V209.455H460.909V214.727L440.182 256H434.273Z" fill="white"/>
<path d="M560.727 252.636C557.606 252.636 554.848 252.083 552.455 250.977C550.076 249.856 548.22 248.318 546.886 246.364C545.553 244.394 544.894 242.152 544.909 239.636C544.894 237.667 545.28 235.848 546.068 234.182C546.856 232.5 547.932 231.098 549.295 229.977C550.674 228.841 552.212 228.121 553.909 227.818V227.545C551.682 226.97 549.909 225.72 548.591 223.795C547.273 221.856 546.621 219.652 546.636 217.182C546.621 214.818 547.22 212.705 548.432 210.841C549.644 208.977 551.311 207.508 553.432 206.432C555.568 205.356 558 204.818 560.727 204.818C563.424 204.818 565.833 205.356 567.955 206.432C570.076 207.508 571.742 208.977 572.955 210.841C574.182 212.705 574.803 214.818 574.818 217.182C574.803 219.652 574.129 221.856 572.795 223.795C571.477 225.72 569.727 226.97 567.545 227.545V227.818C569.227 228.121 570.742 228.841 572.091 229.977C573.439 231.098 574.515 232.5 575.318 234.182C576.121 235.848 576.53 237.667 576.545 239.636C576.53 242.152 575.848 244.394 574.5 246.364C573.167 248.318 571.311 249.856 568.932 250.977C566.568 252.083 563.833 252.636 560.727 252.636ZM560.727 247.636C562.833 247.636 564.652 247.295 566.182 246.614C567.712 245.932 568.894 244.97 569.727 243.727C570.561 242.485 570.985 241.03 571 239.364C570.985 237.606 570.53 236.053 569.636 234.705C568.742 233.356 567.523 232.295 565.977 231.523C564.447 230.75 562.697 230.364 560.727 230.364C558.742 230.364 556.97 230.75 555.409 231.523C553.864 232.295 552.644 233.356 551.75 234.705C550.871 236.053 550.439 237.606 550.455 239.364C550.439 241.03 550.841 242.485 551.659 243.727C552.492 244.97 553.682 245.932 555.227 246.614C556.773 247.295 558.606 247.636 560.727 247.636ZM560.727 225.545C562.394 225.545 563.871 225.212 565.159 224.545C566.462 223.879 567.485 222.947 568.227 221.75C568.97 220.553 569.348 219.152 569.364 217.545C569.348 215.97 568.977 214.598 568.25 213.432C567.523 212.25 566.515 211.341 565.227 210.705C563.939 210.053 562.439 209.727 560.727 209.727C558.985 209.727 557.462 210.053 556.159 210.705C554.856 211.341 553.848 212.25 553.136 213.432C552.424 214.598 552.076 215.97 552.091 217.545C552.076 219.152 552.432 220.553 553.159 221.75C553.902 222.947 554.924 223.879 556.227 224.545C557.53 225.212 559.03 225.545 560.727 225.545Z" fill="white"/>
<path d="M681.636 208.818C683.545 208.833 685.455 209.197 687.364 209.909C689.273 210.621 691.015 211.803 692.591 213.455C694.167 215.091 695.432 217.326 696.386 220.159C697.341 222.992 697.818 226.545 697.818 230.818C697.818 234.955 697.424 238.629 696.636 241.841C695.864 245.038 694.742 247.735 693.273 249.932C691.818 252.129 690.045 253.795 687.955 254.932C685.879 256.068 683.53 256.636 680.909 256.636C678.303 256.636 675.977 256.121 673.932 255.091C671.902 254.045 670.235 252.598 668.932 250.75C667.644 248.886 666.818 246.727 666.455 244.273H672C672.5 246.409 673.492 248.174 674.977 249.568C676.477 250.947 678.455 251.636 680.909 251.636C684.5 251.636 687.333 250.068 689.409 246.932C691.5 243.795 692.545 239.364 692.545 233.636H692.182C691.333 234.909 690.326 236.008 689.159 236.932C687.992 237.856 686.697 238.568 685.273 239.068C683.848 239.568 682.333 239.818 680.727 239.818C678.061 239.818 675.614 239.159 673.386 237.841C671.174 236.508 669.402 234.682 668.068 232.364C666.75 230.03 666.091 227.364 666.091 224.364C666.091 221.515 666.727 218.909 668 216.545C669.288 214.167 671.091 212.273 673.409 210.864C675.742 209.455 678.485 208.773 681.636 208.818ZM681.636 213.818C679.727 213.818 678.008 214.295 676.477 215.25C674.962 216.189 673.758 217.462 672.864 219.068C671.985 220.659 671.545 222.424 671.545 224.364C671.545 226.303 671.97 228.068 672.818 229.659C673.682 231.235 674.856 232.492 676.341 233.432C677.841 234.356 679.545 234.818 681.455 234.818C682.894 234.818 684.235 234.538 685.477 233.977C686.72 233.402 687.803 232.621 688.727 231.636C689.667 230.636 690.402 229.508 690.932 228.25C691.462 226.977 691.727 225.652 691.727 224.273C691.727 222.455 691.288 220.75 690.409 219.159C689.545 217.568 688.348 216.28 686.818 215.295C685.303 214.311 683.576 213.818 681.636 213.818Z" fill="white"/>
<path d="M425.727 370.455V365.818L446.182 333.455H449.545V340.636H447.273L431.818 365.091V365.455H459.364V370.455H425.727ZM447.636 380V369.045V366.886V333.455H453V380H447.636Z" fill="white"/>
<path d="M561.364 380.636C558.697 380.636 556.295 380.106 554.159 379.045C552.023 377.985 550.311 376.53 549.023 374.682C547.735 372.833 547.03 370.727 546.909 368.364H552.364C552.576 370.47 553.53 372.212 555.227 373.591C556.939 374.955 558.985 375.636 561.364 375.636C563.273 375.636 564.97 375.189 566.455 374.295C567.955 373.402 569.129 372.174 569.977 370.614C570.841 369.038 571.273 367.258 571.273 365.273C571.273 363.242 570.826 361.432 569.932 359.841C569.053 358.235 567.841 356.97 566.295 356.045C564.75 355.121 562.985 354.652 561 354.636C559.576 354.621 558.114 354.841 556.614 355.295C555.114 355.735 553.879 356.303 552.909 357L547.636 356.364L550.455 333.455H574.636V338.455H555.182L553.545 352.182H553.818C554.773 351.424 555.97 350.795 557.409 350.295C558.848 349.795 560.348 349.545 561.909 349.545C564.758 349.545 567.295 350.227 569.523 351.591C571.765 352.939 573.523 354.788 574.795 357.136C576.083 359.485 576.727 362.167 576.727 365.182C576.727 368.152 576.061 370.803 574.727 373.136C573.409 375.455 571.591 377.288 569.273 378.636C566.955 379.97 564.318 380.636 561.364 380.636Z" fill="white"/>
<path d="M682.273 380.636C680.364 380.606 678.455 380.242 676.545 379.545C674.636 378.848 672.894 377.674 671.318 376.023C669.742 374.356 668.477 372.106 667.523 369.273C666.568 366.424 666.091 362.848 666.091 358.545C666.091 354.424 666.477 350.773 667.25 347.591C668.023 344.394 669.144 341.705 670.614 339.523C672.083 337.326 673.856 335.659 675.932 334.523C678.023 333.386 680.379 332.818 683 332.818C685.606 332.818 687.924 333.341 689.955 334.386C692 335.417 693.667 336.856 694.955 338.705C696.242 340.553 697.076 342.682 697.455 345.091H691.909C691.394 343 690.394 341.265 688.909 339.886C687.424 338.508 685.455 337.818 683 337.818C679.394 337.818 676.553 339.386 674.477 342.523C672.417 345.659 671.379 350.061 671.364 355.727H671.727C672.576 354.439 673.583 353.341 674.75 352.432C675.932 351.508 677.235 350.795 678.659 350.295C680.083 349.795 681.591 349.545 683.182 349.545C685.848 349.545 688.288 350.212 690.5 351.545C692.712 352.864 694.485 354.689 695.818 357.023C697.152 359.341 697.818 362 697.818 365C697.818 367.879 697.174 370.515 695.886 372.909C694.598 375.288 692.788 377.182 690.455 378.591C688.136 379.985 685.409 380.667 682.273 380.636ZM682.273 375.636C684.182 375.636 685.894 375.159 687.409 374.205C688.939 373.25 690.144 371.97 691.023 370.364C691.917 368.758 692.364 366.97 692.364 365C692.364 363.076 691.932 361.326 691.068 359.75C690.22 358.159 689.045 356.894 687.545 355.955C686.061 355.015 684.364 354.545 682.455 354.545C681.015 354.545 679.674 354.833 678.432 355.409C677.189 355.97 676.098 356.742 675.159 357.727C674.235 358.712 673.508 359.841 672.977 361.114C672.447 362.371 672.182 363.697 672.182 365.091C672.182 366.939 672.614 368.667 673.477 370.273C674.356 371.879 675.553 373.174 677.068 374.159C678.598 375.144 680.333 375.636 682.273 375.636Z" fill="white"/>
<path d="M449.182 460.455V507H443.545V466.364H443.273L431.909 473.909V468.182L443.545 460.455H449.182Z" fill="white"/>
<path d="M546.818 507V502.909L562.182 486.091C563.985 484.121 565.47 482.409 566.636 480.955C567.803 479.485 568.667 478.106 569.227 476.818C569.803 475.515 570.091 474.152 570.091 472.727C570.091 471.091 569.697 469.674 568.909 468.477C568.136 467.28 567.076 466.356 565.727 465.705C564.379 465.053 562.864 464.727 561.182 464.727C559.394 464.727 557.833 465.098 556.5 465.841C555.182 466.568 554.159 467.591 553.432 468.909C552.72 470.227 552.364 471.773 552.364 473.545H547C547 470.818 547.629 468.424 548.886 466.364C550.144 464.303 551.856 462.697 554.023 461.545C556.205 460.394 558.652 459.818 561.364 459.818C564.091 459.818 566.508 460.394 568.614 461.545C570.72 462.697 572.371 464.25 573.568 466.205C574.765 468.159 575.364 470.333 575.364 472.727C575.364 474.439 575.053 476.114 574.432 477.75C573.826 479.371 572.765 481.182 571.25 483.182C569.75 485.167 567.667 487.591 565 490.455L554.545 501.636V502H576.182V507H546.818Z" fill="white"/>
<path d="M681.545 507.636C678.545 507.636 675.871 507.121 673.523 506.091C671.189 505.061 669.333 503.629 667.955 501.795C666.591 499.947 665.848 497.803 665.727 495.364H671.455C671.576 496.864 672.091 498.159 673 499.25C673.909 500.326 675.098 501.159 676.568 501.75C678.038 502.341 679.667 502.636 681.455 502.636C683.455 502.636 685.227 502.288 686.773 501.591C688.318 500.894 689.53 499.924 690.409 498.682C691.288 497.439 691.727 496 691.727 494.364C691.727 492.652 691.303 491.144 690.455 489.841C689.606 488.523 688.364 487.492 686.727 486.75C685.091 486.008 683.091 485.636 680.727 485.636H677V480.636H680.727C682.576 480.636 684.197 480.303 685.591 479.636C687 478.97 688.098 478.03 688.886 476.818C689.689 475.606 690.091 474.182 690.091 472.545C690.091 470.97 689.742 469.598 689.045 468.432C688.348 467.265 687.364 466.356 686.091 465.705C684.833 465.053 683.348 464.727 681.636 464.727C680.03 464.727 678.515 465.023 677.091 465.614C675.682 466.189 674.53 467.03 673.636 468.136C672.742 469.227 672.258 470.545 672.182 472.091H666.727C666.818 469.652 667.553 467.515 668.932 465.682C670.311 463.833 672.114 462.394 674.341 461.364C676.583 460.333 679.045 459.818 681.727 459.818C684.606 459.818 687.076 460.402 689.136 461.568C691.197 462.72 692.78 464.242 693.886 466.136C694.992 468.03 695.545 470.076 695.545 472.273C695.545 474.894 694.856 477.129 693.477 478.977C692.114 480.826 690.258 482.106 687.909 482.818V483.182C690.848 483.667 693.144 484.917 694.795 486.932C696.447 488.932 697.273 491.409 697.273 494.364C697.273 496.894 696.583 499.167 695.205 501.182C693.841 503.182 691.977 504.758 689.614 505.909C687.25 507.061 684.561 507.636 681.545 507.636Z" fill="white"/>
<path d="M427 618.636C423.576 618.636 420.659 617.705 418.25 615.841C415.841 613.962 414 611.242 412.727 607.682C411.455 604.106 410.818 599.788 410.818 594.727C410.818 589.697 411.455 585.402 412.727 581.841C414.015 578.265 415.864 575.538 418.273 573.659C420.697 571.765 423.606 570.818 427 570.818C430.394 570.818 433.295 571.765 435.705 573.659C438.129 575.538 439.977 578.265 441.25 581.841C442.538 585.402 443.182 589.697 443.182 594.727C443.182 599.788 442.545 604.106 441.273 607.682C440 611.242 438.159 613.962 435.75 615.841C433.341 617.705 430.424 618.636 427 618.636ZM427 613.636C430.394 613.636 433.03 612 434.909 608.727C436.788 605.455 437.727 600.788 437.727 594.727C437.727 590.697 437.295 587.265 436.432 584.432C435.583 581.598 434.356 579.439 432.75 577.955C431.159 576.47 429.242 575.727 427 575.727C423.636 575.727 421.008 577.386 419.114 580.705C417.22 584.008 416.273 588.682 416.273 594.727C416.273 598.758 416.697 602.182 417.545 605C418.394 607.818 419.614 609.962 421.205 611.432C422.811 612.902 424.742 613.636 427 613.636ZM467 618.636C463.576 618.636 460.659 617.705 458.25 615.841C455.841 613.962 454 611.242 452.727 607.682C451.455 604.106 450.818 599.788 450.818 594.727C450.818 589.697 451.455 585.402 452.727 581.841C454.015 578.265 455.864 575.538 458.273 573.659C460.697 571.765 463.606 570.818 467 570.818C470.394 570.818 473.295 571.765 475.705 573.659C478.129 575.538 479.977 578.265 481.25 581.841C482.538 585.402 483.182 589.697 483.182 594.727C483.182 599.788 482.545 604.106 481.273 607.682C480 611.242 478.159 613.962 475.75 615.841C473.341 617.705 470.424 618.636 467 618.636ZM467 613.636C470.394 613.636 473.03 612 474.909 608.727C476.788 605.455 477.727 600.788 477.727 594.727C477.727 590.697 477.295 587.265 476.432 584.432C475.583 581.598 474.356 579.439 472.75 577.955C471.159 576.47 469.242 575.727 467 575.727C463.636 575.727 461.008 577.386 459.114 580.705C457.22 584.008 456.273 588.682 456.273 594.727C456.273 598.758 456.697 602.182 457.545 605C458.394 607.818 459.614 609.962 461.205 611.432C462.811 612.902 464.742 613.636 467 613.636Z" fill="white"/>
<path d="M561 618.636C557.576 618.636 554.659 617.705 552.25 615.841C549.841 613.962 548 611.242 546.727 607.682C545.455 604.106 544.818 599.788 544.818 594.727C544.818 589.697 545.455 585.402 546.727 581.841C548.015 578.265 549.864 575.538 552.273 573.659C554.697 571.765 557.606 570.818 561 570.818C564.394 570.818 567.295 571.765 569.705 573.659C572.129 575.538 573.977 578.265 575.25 581.841C576.538 585.402 577.182 589.697 577.182 594.727C577.182 599.788 576.545 604.106 575.273 607.682C574 611.242 572.159 613.962 569.75 615.841C567.341 617.705 564.424 618.636 561 618.636ZM561 613.636C564.394 613.636 567.03 612 568.909 608.727C570.788 605.455 571.727 600.788 571.727 594.727C571.727 590.697 571.295 587.265 570.432 584.432C569.583 581.598 568.356 579.439 566.75 577.955C565.159 576.47 563.242 575.727 561 575.727C557.636 575.727 555.008 577.386 553.114 580.705C551.22 584.008 550.273 588.682 550.273 594.727C550.273 598.758 550.697 602.182 551.545 605C552.394 607.818 553.614 609.962 555.205 611.432C556.811 612.902 558.742 613.636 561 613.636Z" fill="white"/>
<path d="M681.818 628.364C680.697 628.364 679.735 627.962 678.932 627.159C678.129 626.356 677.727 625.394 677.727 624.273C677.727 623.152 678.129 622.189 678.932 621.386C679.735 620.583 680.697 620.182 681.818 620.182C682.939 620.182 683.902 620.583 684.705 621.386C685.508 622.189 685.909 623.152 685.909 624.273C685.909 625.015 685.72 625.697 685.341 626.318C684.977 626.939 684.485 627.439 683.864 627.818C683.258 628.182 682.576 628.364 681.818 628.364Z" fill="white"/>
<path d="M678.818 132.636L679.182 122.636L670.727 128L668.545 124.182L677.455 119.545L668.545 114.909L670.727 111.091L679.182 116.455L678.818 106.455H683.182L682.818 116.455L691.273 111.091L693.455 114.909L684.545 119.545L693.455 124.182L691.273 128L682.818 122.636L683.182 132.636H678.818Z" fill="white"/>
<path d="M571.364 104.273L556.364 160H551.455L566.455 104.273H571.364Z" fill="white"/>
<path d="M406.545 144H400.636L417.727 97.4545H423.545L440.636 144H434.727L420.818 104.818H420.455L406.545 144ZM408.727 125.818H432.545V130.818H408.727V125.818ZM483.153 112H477.517C477.184 110.379 476.6 108.955 475.767 107.727C474.949 106.5 473.949 105.47 472.767 104.636C471.6 103.788 470.305 103.152 468.881 102.727C467.456 102.303 465.972 102.091 464.426 102.091C461.608 102.091 459.055 102.803 456.767 104.227C454.494 105.652 452.684 107.75 451.335 110.523C450.002 113.295 449.335 116.697 449.335 120.727C449.335 124.758 450.002 128.159 451.335 130.932C452.684 133.705 454.494 135.803 456.767 137.227C459.055 138.652 461.608 139.364 464.426 139.364C465.972 139.364 467.456 139.152 468.881 138.727C470.305 138.303 471.6 137.674 472.767 136.841C473.949 135.992 474.949 134.955 475.767 133.727C476.6 132.485 477.184 131.061 477.517 129.455H483.153C482.729 131.833 481.956 133.962 480.835 135.841C479.714 137.72 478.32 139.318 476.653 140.636C474.987 141.939 473.116 142.932 471.04 143.614C468.979 144.295 466.775 144.636 464.426 144.636C460.456 144.636 456.926 143.667 453.835 141.727C450.744 139.788 448.313 137.03 446.54 133.455C444.767 129.879 443.881 125.636 443.881 120.727C443.881 115.818 444.767 111.576 446.54 108C448.313 104.424 450.744 101.667 453.835 99.7273C456.926 97.7879 460.456 96.8182 464.426 96.8182C466.775 96.8182 468.979 97.1591 471.04 97.8409C473.116 98.5227 474.987 99.5227 476.653 100.841C478.32 102.144 479.714 103.735 480.835 105.614C481.956 107.477 482.729 109.606 483.153 112Z" fill="white"/>
<path d="M272.091 701H266.455C266.121 699.379 265.538 697.955 264.705 696.727C263.886 695.5 262.886 694.47 261.705 693.636C260.538 692.788 259.242 692.152 257.818 691.727C256.394 691.303 254.909 691.091 253.364 691.091C250.545 691.091 247.992 691.803 245.705 693.227C243.432 694.652 241.621 696.75 240.273 699.523C238.939 702.295 238.273 705.697 238.273 709.727C238.273 713.758 238.939 717.159 240.273 719.932C241.621 722.705 243.432 724.803 245.705 726.227C247.992 727.652 250.545 728.364 253.364 728.364C254.909 728.364 256.394 728.152 257.818 727.727C259.242 727.303 260.538 726.674 261.705 725.841C262.886 724.992 263.886 723.955 264.705 722.727C265.538 721.485 266.121 720.061 266.455 718.455H272.091C271.667 720.833 270.894 722.962 269.773 724.841C268.652 726.72 267.258 728.318 265.591 729.636C263.924 730.939 262.053 731.932 259.977 732.614C257.917 733.295 255.712 733.636 253.364 733.636C249.394 733.636 245.864 732.667 242.773 730.727C239.682 728.788 237.25 726.03 235.477 722.455C233.705 718.879 232.818 714.636 232.818 709.727C232.818 704.818 233.705 700.576 235.477 697C237.25 693.424 239.682 690.667 242.773 688.727C245.864 686.788 249.394 685.818 253.364 685.818C255.712 685.818 257.917 686.159 259.977 686.841C262.053 687.523 263.924 688.523 265.591 689.841C267.258 691.144 268.652 692.735 269.773 694.614C270.894 696.477 271.667 698.606 272.091 701ZM290.744 733.818C288.532 733.818 286.525 733.402 284.722 732.568C282.919 731.72 281.487 730.5 280.426 728.909C279.366 727.303 278.835 725.364 278.835 723.091C278.835 721.091 279.229 719.47 280.017 718.227C280.805 716.97 281.858 715.985 283.176 715.273C284.494 714.561 285.949 714.03 287.54 713.682C289.146 713.318 290.759 713.03 292.381 712.818C294.502 712.545 296.222 712.341 297.54 712.205C298.873 712.053 299.843 711.803 300.449 711.455C301.07 711.106 301.381 710.5 301.381 709.636V709.455C301.381 707.212 300.767 705.47 299.54 704.227C298.328 702.985 296.487 702.364 294.017 702.364C291.456 702.364 289.449 702.924 287.994 704.045C286.54 705.167 285.517 706.364 284.926 707.636L279.835 705.818C280.744 703.697 281.956 702.045 283.472 700.864C285.002 699.667 286.669 698.833 288.472 698.364C290.29 697.879 292.078 697.636 293.835 697.636C294.956 697.636 296.244 697.773 297.699 698.045C299.169 698.303 300.585 698.841 301.949 699.659C303.328 700.477 304.472 701.712 305.381 703.364C306.29 705.015 306.744 707.227 306.744 710V733H301.381V728.273H301.108C300.744 729.03 300.138 729.841 299.29 730.705C298.441 731.568 297.313 732.303 295.903 732.909C294.494 733.515 292.775 733.818 290.744 733.818ZM291.562 729C293.684 729 295.472 728.583 296.926 727.75C298.396 726.917 299.502 725.841 300.244 724.523C301.002 723.205 301.381 721.818 301.381 720.364V715.455C301.153 715.727 300.653 715.977 299.881 716.205C299.123 716.417 298.244 716.606 297.244 716.773C296.259 716.924 295.297 717.061 294.358 717.182C293.434 717.288 292.684 717.379 292.108 717.455C290.714 717.636 289.411 717.932 288.199 718.341C287.002 718.735 286.032 719.333 285.29 720.136C284.563 720.924 284.199 722 284.199 723.364C284.199 725.227 284.888 726.636 286.267 727.591C287.661 728.53 289.426 729 291.562 729ZM321.898 686.455V733H316.534V686.455H321.898ZM345.903 733.727C342.631 733.727 339.813 732.955 337.449 731.409C335.085 729.864 333.267 727.735 331.994 725.023C330.722 722.311 330.085 719.212 330.085 715.727C330.085 712.182 330.737 709.053 332.04 706.341C333.358 703.614 335.191 701.485 337.54 699.955C339.903 698.409 342.661 697.636 345.812 697.636C348.267 697.636 350.479 698.091 352.449 699C354.419 699.909 356.032 701.182 357.29 702.818C358.547 704.455 359.328 706.364 359.631 708.545H354.267C353.858 706.955 352.949 705.545 351.54 704.318C350.146 703.076 348.267 702.455 345.903 702.455C343.813 702.455 341.979 703 340.403 704.091C338.843 705.167 337.623 706.689 336.744 708.659C335.881 710.614 335.449 712.909 335.449 715.545C335.449 718.242 335.873 720.591 336.722 722.591C337.585 724.591 338.797 726.144 340.358 727.25C341.934 728.356 343.782 728.909 345.903 728.909C347.297 728.909 348.562 728.667 349.699 728.182C350.835 727.697 351.797 727 352.585 726.091C353.373 725.182 353.934 724.091 354.267 722.818H359.631C359.328 724.879 358.578 726.735 357.381 728.386C356.199 730.023 354.631 731.326 352.676 732.295C350.737 733.25 348.479 733.727 345.903 733.727ZM389.472 718.727V698.091H394.835V733H389.472V727.091H389.108C388.29 728.864 387.017 730.371 385.29 731.614C383.563 732.841 381.381 733.455 378.744 733.455C376.562 733.455 374.623 732.977 372.926 732.023C371.229 731.053 369.896 729.598 368.926 727.659C367.956 725.705 367.472 723.242 367.472 720.273V698.091H372.835V719.909C372.835 722.455 373.547 724.485 374.972 726C376.411 727.515 378.244 728.273 380.472 728.273C381.805 728.273 383.161 727.932 384.54 727.25C385.934 726.568 387.1 725.523 388.04 724.114C388.994 722.705 389.472 720.909 389.472 718.727ZM410.023 686.455V733H404.659V686.455H410.023ZM430.119 733.818C427.907 733.818 425.9 733.402 424.097 732.568C422.294 731.72 420.862 730.5 419.801 728.909C418.741 727.303 418.21 725.364 418.21 723.091C418.21 721.091 418.604 719.47 419.392 718.227C420.18 716.97 421.233 715.985 422.551 715.273C423.869 714.561 425.324 714.03 426.915 713.682C428.521 713.318 430.134 713.03 431.756 712.818C433.877 712.545 435.597 712.341 436.915 712.205C438.248 712.053 439.218 711.803 439.824 711.455C440.445 711.106 440.756 710.5 440.756 709.636V709.455C440.756 707.212 440.142 705.47 438.915 704.227C437.703 702.985 435.862 702.364 433.392 702.364C430.831 702.364 428.824 702.924 427.369 704.045C425.915 705.167 424.892 706.364 424.301 707.636L419.21 705.818C420.119 703.697 421.331 702.045 422.847 700.864C424.377 699.667 426.044 698.833 427.847 698.364C429.665 697.879 431.453 697.636 433.21 697.636C434.331 697.636 435.619 697.773 437.074 698.045C438.544 698.303 439.96 698.841 441.324 699.659C442.703 700.477 443.847 701.712 444.756 703.364C445.665 705.015 446.119 707.227 446.119 710V733H440.756V728.273H440.483C440.119 729.03 439.513 729.841 438.665 730.705C437.816 731.568 436.688 732.303 435.278 732.909C433.869 733.515 432.15 733.818 430.119 733.818ZM430.938 729C433.059 729 434.847 728.583 436.301 727.75C437.771 726.917 438.877 725.841 439.619 724.523C440.377 723.205 440.756 721.818 440.756 720.364V715.455C440.528 715.727 440.028 715.977 439.256 716.205C438.498 716.417 437.619 716.606 436.619 716.773C435.634 716.924 434.672 717.061 433.733 717.182C432.809 717.288 432.059 717.379 431.483 717.455C430.089 717.636 428.786 717.932 427.574 718.341C426.377 718.735 425.407 719.333 424.665 720.136C423.938 720.924 423.574 722 423.574 723.364C423.574 725.227 424.263 726.636 425.642 727.591C427.036 728.53 428.801 729 430.938 729ZM471.091 698.091V702.636H453V698.091H471.091ZM458.273 689.727H463.636V723C463.636 724.515 463.856 725.652 464.295 726.409C464.75 727.152 465.326 727.652 466.023 727.909C466.735 728.152 467.485 728.273 468.273 728.273C468.864 728.273 469.348 728.242 469.727 728.182C470.106 728.106 470.409 728.045 470.636 728L471.727 732.818C471.364 732.955 470.856 733.091 470.205 733.227C469.553 733.379 468.727 733.455 467.727 733.455C466.212 733.455 464.727 733.129 463.273 732.477C461.833 731.826 460.636 730.833 459.682 729.5C458.742 728.167 458.273 726.485 458.273 724.455V689.727ZM492.966 733.727C489.814 733.727 487.049 732.977 484.67 731.477C482.307 729.977 480.458 727.879 479.125 725.182C477.807 722.485 477.148 719.333 477.148 715.727C477.148 712.091 477.807 708.917 479.125 706.205C480.458 703.492 482.307 701.386 484.67 699.886C487.049 698.386 489.814 697.636 492.966 697.636C496.117 697.636 498.875 698.386 501.239 699.886C503.617 701.386 505.466 703.492 506.784 706.205C508.117 708.917 508.784 712.091 508.784 715.727C508.784 719.333 508.117 722.485 506.784 725.182C505.466 727.879 503.617 729.977 501.239 731.477C498.875 732.977 496.117 733.727 492.966 733.727ZM492.966 728.909C495.36 728.909 497.33 728.295 498.875 727.068C500.42 725.841 501.564 724.227 502.307 722.227C503.049 720.227 503.42 718.061 503.42 715.727C503.42 713.394 503.049 711.22 502.307 709.205C501.564 707.189 500.42 705.561 498.875 704.318C497.33 703.076 495.36 702.455 492.966 702.455C490.572 702.455 488.602 703.076 487.057 704.318C485.511 705.561 484.367 707.189 483.625 709.205C482.883 711.22 482.511 713.394 482.511 715.727C482.511 718.061 482.883 720.227 483.625 722.227C484.367 724.227 485.511 725.841 487.057 727.068C488.602 728.295 490.572 728.909 492.966 728.909ZM516.972 733V698.091H522.153V703.364H522.517C523.153 701.636 524.305 700.235 525.972 699.159C527.638 698.083 529.517 697.545 531.608 697.545C532.002 697.545 532.494 697.553 533.085 697.568C533.676 697.583 534.123 697.606 534.426 697.636V703.091C534.244 703.045 533.828 702.977 533.176 702.886C532.54 702.78 531.866 702.727 531.153 702.727C529.456 702.727 527.941 703.083 526.608 703.795C525.29 704.492 524.244 705.462 523.472 706.705C522.714 707.932 522.335 709.333 522.335 710.909V733H516.972ZM559.511 733V686.455H564.875V703.636H565.33C565.723 703.03 566.269 702.258 566.966 701.318C567.678 700.364 568.693 699.515 570.011 698.773C571.345 698.015 573.148 697.636 575.42 697.636C578.36 697.636 580.951 698.371 583.193 699.841C585.436 701.311 587.186 703.394 588.443 706.091C589.701 708.788 590.33 711.97 590.33 715.636C590.33 719.333 589.701 722.538 588.443 725.25C587.186 727.947 585.443 730.038 583.216 731.523C580.989 732.992 578.42 733.727 575.511 733.727C573.269 733.727 571.473 733.356 570.125 732.614C568.777 731.856 567.739 731 567.011 730.045C566.284 729.076 565.723 728.273 565.33 727.636H564.693V733H559.511ZM564.784 715.545C564.784 718.182 565.17 720.508 565.943 722.523C566.716 724.523 567.845 726.091 569.33 727.227C570.814 728.348 572.633 728.909 574.784 728.909C577.027 728.909 578.898 728.318 580.398 727.136C581.913 725.939 583.049 724.333 583.807 722.318C584.58 720.288 584.966 718.03 584.966 715.545C584.966 713.091 584.587 710.879 583.83 708.909C583.087 706.924 581.958 705.356 580.443 704.205C578.943 703.038 577.057 702.455 574.784 702.455C572.602 702.455 570.769 703.008 569.284 704.114C567.799 705.205 566.678 706.735 565.92 708.705C565.163 710.659 564.784 712.939 564.784 715.545ZM600.739 746.091C599.83 746.091 599.019 746.015 598.307 745.864C597.595 745.727 597.102 745.591 596.83 745.455L598.193 740.727C599.496 741.061 600.648 741.182 601.648 741.091C602.648 741 603.534 740.553 604.307 739.75C605.095 738.962 605.814 737.682 606.466 735.909L607.466 733.182L594.557 698.091H600.375L610.011 725.909H610.375L620.011 698.091H625.83L611.011 738.091C610.345 739.894 609.519 741.386 608.534 742.568C607.549 743.765 606.405 744.652 605.102 745.227C603.814 745.803 602.36 746.091 600.739 746.091ZM689.091 701H683.455C683.121 699.379 682.538 697.955 681.705 696.727C680.886 695.5 679.886 694.47 678.705 693.636C677.538 692.788 676.242 692.152 674.818 691.727C673.394 691.303 671.909 691.091 670.364 691.091C667.545 691.091 664.992 691.803 662.705 693.227C660.432 694.652 658.621 696.75 657.273 699.523C655.939 702.295 655.273 705.697 655.273 709.727C655.273 713.758 655.939 717.159 657.273 719.932C658.621 722.705 660.432 724.803 662.705 726.227C664.992 727.652 667.545 728.364 670.364 728.364C671.909 728.364 673.394 728.152 674.818 727.727C676.242 727.303 677.538 726.674 678.705 725.841C679.886 724.992 680.886 723.955 681.705 722.727C682.538 721.485 683.121 720.061 683.455 718.455H689.091C688.667 720.833 687.894 722.962 686.773 724.841C685.652 726.72 684.258 728.318 682.591 729.636C680.924 730.939 679.053 731.932 676.977 732.614C674.917 733.295 672.712 733.636 670.364 733.636C666.394 733.636 662.864 732.667 659.773 730.727C656.682 728.788 654.25 726.03 652.477 722.455C650.705 718.879 649.818 714.636 649.818 709.727C649.818 704.818 650.705 700.576 652.477 697C654.25 693.424 656.682 690.667 659.773 688.727C662.864 686.788 666.394 685.818 670.364 685.818C672.712 685.818 674.917 686.159 676.977 686.841C679.053 687.523 680.924 688.523 682.591 689.841C684.258 691.144 685.652 692.735 686.773 694.614C687.894 696.477 688.667 698.606 689.091 701ZM702.835 712V733H697.472V686.455H702.835V703.545H703.29C704.108 701.742 705.335 700.311 706.972 699.25C708.623 698.174 710.82 697.636 713.562 697.636C715.941 697.636 718.025 698.114 719.812 699.068C721.6 700.008 722.987 701.455 723.972 703.409C724.972 705.348 725.472 707.818 725.472 710.818V733H720.108V711.182C720.108 708.409 719.388 706.265 717.949 704.75C716.525 703.22 714.547 702.455 712.017 702.455C710.259 702.455 708.684 702.826 707.29 703.568C705.911 704.311 704.82 705.394 704.017 706.818C703.229 708.242 702.835 709.97 702.835 712ZM749.92 733.727C746.557 733.727 743.655 732.985 741.216 731.5C738.792 730 736.92 727.909 735.602 725.227C734.299 722.53 733.648 719.394 733.648 715.818C733.648 712.242 734.299 709.091 735.602 706.364C736.92 703.621 738.754 701.485 741.102 699.955C743.466 698.409 746.223 697.636 749.375 697.636C751.193 697.636 752.989 697.939 754.761 698.545C756.534 699.152 758.148 700.136 759.602 701.5C761.057 702.848 762.216 704.636 763.08 706.864C763.943 709.091 764.375 711.833 764.375 715.091V717.364H737.466V712.727H758.92C758.92 710.758 758.527 709 757.739 707.455C756.966 705.909 755.86 704.689 754.42 703.795C752.996 702.902 751.314 702.455 749.375 702.455C747.239 702.455 745.39 702.985 743.83 704.045C742.284 705.091 741.095 706.455 740.261 708.136C739.428 709.818 739.011 711.621 739.011 713.545V716.636C739.011 719.273 739.466 721.508 740.375 723.341C741.299 725.159 742.58 726.545 744.216 727.5C745.852 728.439 747.754 728.909 749.92 728.909C751.33 728.909 752.602 728.712 753.739 728.318C754.89 727.909 755.883 727.303 756.716 726.5C757.549 725.682 758.193 724.667 758.648 723.455L763.83 724.909C763.284 726.667 762.367 728.212 761.08 729.545C759.792 730.864 758.201 731.894 756.307 732.636C754.413 733.364 752.284 733.727 749.92 733.727ZM772.534 746.091V698.091H777.716V703.636H778.352C778.746 703.03 779.292 702.258 779.989 701.318C780.701 700.364 781.716 699.515 783.034 698.773C784.367 698.015 786.17 697.636 788.443 697.636C791.383 697.636 793.973 698.371 796.216 699.841C798.458 701.311 800.208 703.394 801.466 706.091C802.723 708.788 803.352 711.97 803.352 715.636C803.352 719.333 802.723 722.538 801.466 725.25C800.208 727.947 798.466 730.038 796.239 731.523C794.011 732.992 791.443 733.727 788.534 733.727C786.292 733.727 784.496 733.356 783.148 732.614C781.799 731.856 780.761 731 780.034 730.045C779.307 729.076 778.746 728.273 778.352 727.636H777.898V746.091H772.534ZM777.807 715.545C777.807 718.182 778.193 720.508 778.966 722.523C779.739 724.523 780.867 726.091 782.352 727.227C783.837 728.348 785.655 728.909 787.807 728.909C790.049 728.909 791.92 728.318 793.42 727.136C794.936 725.939 796.072 724.333 796.83 722.318C797.602 720.288 797.989 718.03 797.989 715.545C797.989 713.091 797.61 710.879 796.852 708.909C796.11 706.924 794.981 705.356 793.466 704.205C791.966 703.038 790.08 702.455 787.807 702.455C785.625 702.455 783.792 703.008 782.307 704.114C780.822 705.205 779.701 706.735 778.943 708.705C778.186 710.659 777.807 712.939 777.807 715.545ZM826.17 733.727C822.807 733.727 819.905 732.985 817.466 731.5C815.042 730 813.17 727.909 811.852 725.227C810.549 722.53 809.898 719.394 809.898 715.818C809.898 712.242 810.549 709.091 811.852 706.364C813.17 703.621 815.004 701.485 817.352 699.955C819.716 698.409 822.473 697.636 825.625 697.636C827.443 697.636 829.239 697.939 831.011 698.545C832.784 699.152 834.398 700.136 835.852 701.5C837.307 702.848 838.466 704.636 839.33 706.864C840.193 709.091 840.625 711.833 840.625 715.091V717.364H813.716V712.727H835.17C835.17 710.758 834.777 709 833.989 707.455C833.216 705.909 832.11 704.689 830.67 703.795C829.246 702.902 827.564 702.455 825.625 702.455C823.489 702.455 821.64 702.985 820.08 704.045C818.534 705.091 817.345 706.455 816.511 708.136C815.678 709.818 815.261 711.621 815.261 713.545V716.636C815.261 719.273 815.716 721.508 816.625 723.341C817.549 725.159 818.83 726.545 820.466 727.5C822.102 728.439 824.004 728.909 826.17 728.909C827.58 728.909 828.852 728.712 829.989 728.318C831.14 727.909 832.133 727.303 832.966 726.5C833.799 725.682 834.443 724.667 834.898 723.455L840.08 724.909C839.534 726.667 838.617 728.212 837.33 729.545C836.042 730.864 834.451 731.894 832.557 732.636C830.663 733.364 828.534 733.727 826.17 733.727ZM863.966 698.091V702.636H845.875V698.091H863.966ZM851.148 689.727H856.511V723C856.511 724.515 856.731 725.652 857.17 726.409C857.625 727.152 858.201 727.652 858.898 727.909C859.61 728.152 860.36 728.273 861.148 728.273C861.739 728.273 862.223 728.242 862.602 728.182C862.981 728.106 863.284 728.045 863.511 728L864.602 732.818C864.239 732.955 863.731 733.091 863.08 733.227C862.428 733.379 861.602 733.455 860.602 733.455C859.087 733.455 857.602 733.129 856.148 732.477C854.708 731.826 853.511 730.833 852.557 729.5C851.617 728.167 851.148 726.485 851.148 724.455V689.727ZM896.136 705.909L891.318 707.273C891.015 706.47 890.568 705.689 889.977 704.932C889.402 704.159 888.614 703.523 887.614 703.023C886.614 702.523 885.333 702.273 883.773 702.273C881.636 702.273 879.856 702.765 878.432 703.75C877.023 704.72 876.318 705.955 876.318 707.455C876.318 708.788 876.803 709.841 877.773 710.614C878.742 711.386 880.258 712.03 882.318 712.545L887.5 713.818C890.621 714.576 892.947 715.735 894.477 717.295C896.008 718.841 896.773 720.833 896.773 723.273C896.773 725.273 896.197 727.061 895.045 728.636C893.909 730.212 892.318 731.455 890.273 732.364C888.227 733.273 885.848 733.727 883.136 733.727C879.576 733.727 876.629 732.955 874.295 731.409C871.962 729.864 870.485 727.606 869.864 724.636L874.955 723.364C875.439 725.242 876.356 726.652 877.705 727.591C879.068 728.53 880.848 729 883.045 729C885.545 729 887.53 728.47 889 727.409C890.485 726.333 891.227 725.045 891.227 723.545C891.227 722.333 890.803 721.318 889.955 720.5C889.106 719.667 887.803 719.045 886.045 718.636L880.227 717.273C877.03 716.515 874.682 715.341 873.182 713.75C871.697 712.144 870.955 710.136 870.955 707.727C870.955 705.758 871.508 704.015 872.614 702.5C873.735 700.985 875.258 699.795 877.182 698.932C879.121 698.068 881.318 697.636 883.773 697.636C887.227 697.636 889.939 698.394 891.909 699.909C893.894 701.424 895.303 703.424 896.136 705.909ZM923.574 733V686.455H929.21V709.545H929.756L950.665 686.455H958.028L938.483 707.455L958.028 733H951.21L935.028 711.364L929.21 717.909V733H923.574ZM966.784 733V698.091H972.148V733H966.784ZM969.511 692.273C968.466 692.273 967.564 691.917 966.807 691.205C966.064 690.492 965.693 689.636 965.693 688.636C965.693 687.636 966.064 686.78 966.807 686.068C967.564 685.356 968.466 685 969.511 685C970.557 685 971.451 685.356 972.193 686.068C972.951 686.78 973.33 687.636 973.33 688.636C973.33 689.636 972.951 690.492 972.193 691.205C971.451 691.917 970.557 692.273 969.511 692.273ZM981.972 733V698.091H987.153V703.364H987.517C988.153 701.636 989.305 700.235 990.972 699.159C992.638 698.083 994.517 697.545 996.608 697.545C997.002 697.545 997.494 697.553 998.085 697.568C998.676 697.583 999.123 697.606 999.426 697.636V703.091C999.244 703.045 998.828 702.977 998.176 702.886C997.54 702.78 996.866 702.727 996.153 702.727C994.456 702.727 992.941 703.083 991.608 703.795C990.29 704.492 989.244 705.462 988.472 706.705C987.714 707.932 987.335 709.333 987.335 710.909V733H981.972ZM1005.78 733V698.091H1011.15V733H1005.78ZM1008.51 692.273C1007.47 692.273 1006.56 691.917 1005.81 691.205C1005.06 690.492 1004.69 689.636 1004.69 688.636C1004.69 687.636 1005.06 686.78 1005.81 686.068C1006.56 685.356 1007.47 685 1008.51 685C1009.56 685 1010.45 685.356 1011.19 686.068C1011.95 686.78 1012.33 687.636 1012.33 688.636C1012.33 689.636 1011.95 690.492 1011.19 691.205C1010.45 691.917 1009.56 692.273 1008.51 692.273ZM1026.34 686.455V733H1020.97V686.455H1026.34ZM1041.52 686.455V733H1036.16V686.455H1041.52Z" fill="url(#paint0_linear_2_40)"/>
<defs>
<linearGradient id="paint0_linear_2_40" x1="1213" y1="690" x2="179" y2="682" gradientUnits="userSpaceOnUse">
<stop stop-color="#1E4F00"/>
<stop offset="1" stop-opacity="0"/>
</linearGradient>
</defs>
</svg>
