<svg width="818" height="748" viewBox="0 0 818 748" fill="none" xmlns="http://www.w3.org/2000/svg">
<rect width="8" height="652" transform="translate(148)" fill="black"/>
<rect width="8" height="553.943" transform="translate(148.058 174.107) rotate(-90.4129)" fill="black"/>
<rect width="8" height="352.005" transform="translate(160.014 295.949) rotate(-90.4129)" fill="black"/>
<rect width="8" height="556.043" transform="translate(152.014 418.007) rotate(-90.4129)" fill="black"/>
<rect width="8" height="556.072" transform="translate(151.986 92.007) rotate(-90.4129)" fill="black"/>
<rect width="8" height="557.001" transform="translate(147.058 12.1074) rotate(-90.4129)" fill="black"/>
<rect width="8" height="361.861" transform="translate(154.007 538.992) rotate(-90.4129)" fill="black"/>
<rect width="8" height="556.028" transform="translate(152.029 660.007) rotate(-90.4129)" fill="black"/>
<rect width="8" height="570" transform="translate(268 82)" fill="black"/>
<rect width="8" height="570" transform="translate(268 82)" fill="black"/>
<rect width="8" height="654" transform="translate(700)" fill="black"/>
<path d="M599.091 541.545V536.636H627.091V541.545H599.091ZM599.091 555V550.091H627.091V555H599.091Z" fill="white"/>
<path d="M602.545 302.818V272.818H607.636V302.818H602.545ZM590.091 290.364V285.273H620.091V290.364H590.091Z" fill="white"/>
<path d="M609.909 121.545V126.545H589.545V121.545H609.909Z" fill="white"/>
<rect width="8" height="570" transform="translate(388 82)" fill="black"/>
<rect width="8" height="570" transform="translate(508 82)" fill="black"/>
<path d="M205.273 256L226.091 214.818V214.455H202.091V209.455H231.909V214.727L211.182 256H205.273Z" fill="white"/>
<path d="M331.727 252.636C328.606 252.636 325.848 252.083 323.455 250.977C321.076 249.856 319.22 248.318 317.886 246.364C316.553 244.394 315.894 242.152 315.909 239.636C315.894 237.667 316.28 235.848 317.068 234.182C317.856 232.5 318.932 231.098 320.295 229.977C321.674 228.841 323.212 228.121 324.909 227.818V227.545C322.682 226.97 320.909 225.72 319.591 223.795C318.273 221.856 317.621 219.652 317.636 217.182C317.621 214.818 318.22 212.705 319.432 210.841C320.644 208.977 322.311 207.508 324.432 206.432C326.568 205.356 329 204.818 331.727 204.818C334.424 204.818 336.833 205.356 338.955 206.432C341.076 207.508 342.742 208.977 343.955 210.841C345.182 212.705 345.803 214.818 345.818 217.182C345.803 219.652 345.129 221.856 343.795 223.795C342.477 225.72 340.727 226.97 338.545 227.545V227.818C340.227 228.121 341.742 228.841 343.091 229.977C344.439 231.098 345.515 232.5 346.318 234.182C347.121 235.848 347.53 237.667 347.545 239.636C347.53 242.152 346.848 244.394 345.5 246.364C344.167 248.318 342.311 249.856 339.932 250.977C337.568 252.083 334.833 252.636 331.727 252.636ZM331.727 247.636C333.833 247.636 335.652 247.295 337.182 246.614C338.712 245.932 339.894 244.97 340.727 243.727C341.561 242.485 341.985 241.03 342 239.364C341.985 237.606 341.53 236.053 340.636 234.705C339.742 233.356 338.523 232.295 336.977 231.523C335.447 230.75 333.697 230.364 331.727 230.364C329.742 230.364 327.97 230.75 326.409 231.523C324.864 232.295 323.644 233.356 322.75 234.705C321.871 236.053 321.439 237.606 321.455 239.364C321.439 241.03 321.841 242.485 322.659 243.727C323.492 244.97 324.682 245.932 326.227 246.614C327.773 247.295 329.606 247.636 331.727 247.636ZM331.727 225.545C333.394 225.545 334.871 225.212 336.159 224.545C337.462 223.879 338.485 222.947 339.227 221.75C339.97 220.553 340.348 219.152 340.364 217.545C340.348 215.97 339.977 214.598 339.25 213.432C338.523 212.25 337.515 211.341 336.227 210.705C334.939 210.053 333.439 209.727 331.727 209.727C329.985 209.727 328.462 210.053 327.159 210.705C325.856 211.341 324.848 212.25 324.136 213.432C323.424 214.598 323.076 215.97 323.091 217.545C323.076 219.152 323.432 220.553 324.159 221.75C324.902 222.947 325.924 223.879 327.227 224.545C328.53 225.212 330.03 225.545 331.727 225.545Z" fill="white"/>
<path d="M452.636 208.818C454.545 208.833 456.455 209.197 458.364 209.909C460.273 210.621 462.015 211.803 463.591 213.455C465.167 215.091 466.432 217.326 467.386 220.159C468.341 222.992 468.818 226.545 468.818 230.818C468.818 234.955 468.424 238.629 467.636 241.841C466.864 245.038 465.742 247.735 464.273 249.932C462.818 252.129 461.045 253.795 458.955 254.932C456.879 256.068 454.53 256.636 451.909 256.636C449.303 256.636 446.977 256.121 444.932 255.091C442.902 254.045 441.235 252.598 439.932 250.75C438.644 248.886 437.818 246.727 437.455 244.273H443C443.5 246.409 444.492 248.174 445.977 249.568C447.477 250.947 449.455 251.636 451.909 251.636C455.5 251.636 458.333 250.068 460.409 246.932C462.5 243.795 463.545 239.364 463.545 233.636H463.182C462.333 234.909 461.326 236.008 460.159 236.932C458.992 237.856 457.697 238.568 456.273 239.068C454.848 239.568 453.333 239.818 451.727 239.818C449.061 239.818 446.614 239.159 444.386 237.841C442.174 236.508 440.402 234.682 439.068 232.364C437.75 230.03 437.091 227.364 437.091 224.364C437.091 221.515 437.727 218.909 439 216.545C440.288 214.167 442.091 212.273 444.409 210.864C446.742 209.455 449.485 208.773 452.636 208.818ZM452.636 213.818C450.727 213.818 449.008 214.295 447.477 215.25C445.962 216.189 444.758 217.462 443.864 219.068C442.985 220.659 442.545 222.424 442.545 224.364C442.545 226.303 442.97 228.068 443.818 229.659C444.682 231.235 445.856 232.492 447.341 233.432C448.841 234.356 450.545 234.818 452.455 234.818C453.894 234.818 455.235 234.538 456.477 233.977C457.72 233.402 458.803 232.621 459.727 231.636C460.667 230.636 461.402 229.508 461.932 228.25C462.462 226.977 462.727 225.652 462.727 224.273C462.727 222.455 462.288 220.75 461.409 219.159C460.545 217.568 459.348 216.28 457.818 215.295C456.303 214.311 454.576 213.818 452.636 213.818Z" fill="white"/>
<path d="M196.727 370.455V365.818L217.182 333.455H220.545V340.636H218.273L202.818 365.091V365.455H230.364V370.455H196.727ZM218.636 380V369.045V366.886V333.455H224V380H218.636Z" fill="white"/>
<path d="M332.364 380.636C329.697 380.636 327.295 380.106 325.159 379.045C323.023 377.985 321.311 376.53 320.023 374.682C318.735 372.833 318.03 370.727 317.909 368.364H323.364C323.576 370.47 324.53 372.212 326.227 373.591C327.939 374.955 329.985 375.636 332.364 375.636C334.273 375.636 335.97 375.189 337.455 374.295C338.955 373.402 340.129 372.174 340.977 370.614C341.841 369.038 342.273 367.258 342.273 365.273C342.273 363.242 341.826 361.432 340.932 359.841C340.053 358.235 338.841 356.97 337.295 356.045C335.75 355.121 333.985 354.652 332 354.636C330.576 354.621 329.114 354.841 327.614 355.295C326.114 355.735 324.879 356.303 323.909 357L318.636 356.364L321.455 333.455H345.636V338.455H326.182L324.545 352.182H324.818C325.773 351.424 326.97 350.795 328.409 350.295C329.848 349.795 331.348 349.545 332.909 349.545C335.758 349.545 338.295 350.227 340.523 351.591C342.765 352.939 344.523 354.788 345.795 357.136C347.083 359.485 347.727 362.167 347.727 365.182C347.727 368.152 347.061 370.803 345.727 373.136C344.409 375.455 342.591 377.288 340.273 378.636C337.955 379.97 335.318 380.636 332.364 380.636Z" fill="white"/>
<path d="M453.273 380.636C451.364 380.606 449.455 380.242 447.545 379.545C445.636 378.848 443.894 377.674 442.318 376.023C440.742 374.356 439.477 372.106 438.523 369.273C437.568 366.424 437.091 362.848 437.091 358.545C437.091 354.424 437.477 350.773 438.25 347.591C439.023 344.394 440.144 341.705 441.614 339.523C443.083 337.326 444.856 335.659 446.932 334.523C449.023 333.386 451.379 332.818 454 332.818C456.606 332.818 458.924 333.341 460.955 334.386C463 335.417 464.667 336.856 465.955 338.705C467.242 340.553 468.076 342.682 468.455 345.091H462.909C462.394 343 461.394 341.265 459.909 339.886C458.424 338.508 456.455 337.818 454 337.818C450.394 337.818 447.553 339.386 445.477 342.523C443.417 345.659 442.379 350.061 442.364 355.727H442.727C443.576 354.439 444.583 353.341 445.75 352.432C446.932 351.508 448.235 350.795 449.659 350.295C451.083 349.795 452.591 349.545 454.182 349.545C456.848 349.545 459.288 350.212 461.5 351.545C463.712 352.864 465.485 354.689 466.818 357.023C468.152 359.341 468.818 362 468.818 365C468.818 367.879 468.174 370.515 466.886 372.909C465.598 375.288 463.788 377.182 461.455 378.591C459.136 379.985 456.409 380.667 453.273 380.636ZM453.273 375.636C455.182 375.636 456.894 375.159 458.409 374.205C459.939 373.25 461.144 371.97 462.023 370.364C462.917 368.758 463.364 366.97 463.364 365C463.364 363.076 462.932 361.326 462.068 359.75C461.22 358.159 460.045 356.894 458.545 355.955C457.061 355.015 455.364 354.545 453.455 354.545C452.015 354.545 450.674 354.833 449.432 355.409C448.189 355.97 447.098 356.742 446.159 357.727C445.235 358.712 444.508 359.841 443.977 361.114C443.447 362.371 443.182 363.697 443.182 365.091C443.182 366.939 443.614 368.667 444.477 370.273C445.356 371.879 446.553 373.174 448.068 374.159C449.598 375.144 451.333 375.636 453.273 375.636Z" fill="white"/>
<path d="M220.182 460.455V507H214.545V466.364H214.273L202.909 473.909V468.182L214.545 460.455H220.182Z" fill="white"/>
<path d="M317.818 507V502.909L333.182 486.091C334.985 484.121 336.47 482.409 337.636 480.955C338.803 479.485 339.667 478.106 340.227 476.818C340.803 475.515 341.091 474.152 341.091 472.727C341.091 471.091 340.697 469.674 339.909 468.477C339.136 467.28 338.076 466.356 336.727 465.705C335.379 465.053 333.864 464.727 332.182 464.727C330.394 464.727 328.833 465.098 327.5 465.841C326.182 466.568 325.159 467.591 324.432 468.909C323.72 470.227 323.364 471.773 323.364 473.545H318C318 470.818 318.629 468.424 319.886 466.364C321.144 464.303 322.856 462.697 325.023 461.545C327.205 460.394 329.652 459.818 332.364 459.818C335.091 459.818 337.508 460.394 339.614 461.545C341.72 462.697 343.371 464.25 344.568 466.205C345.765 468.159 346.364 470.333 346.364 472.727C346.364 474.439 346.053 476.114 345.432 477.75C344.826 479.371 343.765 481.182 342.25 483.182C340.75 485.167 338.667 487.591 336 490.455L325.545 501.636V502H347.182V507H317.818Z" fill="white"/>
<path d="M452.545 507.636C449.545 507.636 446.871 507.121 444.523 506.091C442.189 505.061 440.333 503.629 438.955 501.795C437.591 499.947 436.848 497.803 436.727 495.364H442.455C442.576 496.864 443.091 498.159 444 499.25C444.909 500.326 446.098 501.159 447.568 501.75C449.038 502.341 450.667 502.636 452.455 502.636C454.455 502.636 456.227 502.288 457.773 501.591C459.318 500.894 460.53 499.924 461.409 498.682C462.288 497.439 462.727 496 462.727 494.364C462.727 492.652 462.303 491.144 461.455 489.841C460.606 488.523 459.364 487.492 457.727 486.75C456.091 486.008 454.091 485.636 451.727 485.636H448V480.636H451.727C453.576 480.636 455.197 480.303 456.591 479.636C458 478.97 459.098 478.03 459.886 476.818C460.689 475.606 461.091 474.182 461.091 472.545C461.091 470.97 460.742 469.598 460.045 468.432C459.348 467.265 458.364 466.356 457.091 465.705C455.833 465.053 454.348 464.727 452.636 464.727C451.03 464.727 449.515 465.023 448.091 465.614C446.682 466.189 445.53 467.03 444.636 468.136C443.742 469.227 443.258 470.545 443.182 472.091H437.727C437.818 469.652 438.553 467.515 439.932 465.682C441.311 463.833 443.114 462.394 445.341 461.364C447.583 460.333 450.045 459.818 452.727 459.818C455.606 459.818 458.076 460.402 460.136 461.568C462.197 462.72 463.78 464.242 464.886 466.136C465.992 468.03 466.545 470.076 466.545 472.273C466.545 474.894 465.856 477.129 464.477 478.977C463.114 480.826 461.258 482.106 458.909 482.818V483.182C461.848 483.667 464.144 484.917 465.795 486.932C467.447 488.932 468.273 491.409 468.273 494.364C468.273 496.894 467.583 499.167 466.205 501.182C464.841 503.182 462.977 504.758 460.614 505.909C458.25 507.061 455.561 507.636 452.545 507.636Z" fill="white"/>
<path d="M198 618.636C194.576 618.636 191.659 617.705 189.25 615.841C186.841 613.962 185 611.242 183.727 607.682C182.455 604.106 181.818 599.788 181.818 594.727C181.818 589.697 182.455 585.402 183.727 581.841C185.015 578.265 186.864 575.538 189.273 573.659C191.697 571.765 194.606 570.818 198 570.818C201.394 570.818 204.295 571.765 206.705 573.659C209.129 575.538 210.977 578.265 212.25 581.841C213.538 585.402 214.182 589.697 214.182 594.727C214.182 599.788 213.545 604.106 212.273 607.682C211 611.242 209.159 613.962 206.75 615.841C204.341 617.705 201.424 618.636 198 618.636ZM198 613.636C201.394 613.636 204.03 612 205.909 608.727C207.788 605.455 208.727 600.788 208.727 594.727C208.727 590.697 208.295 587.265 207.432 584.432C206.583 581.598 205.356 579.439 203.75 577.955C202.159 576.47 200.242 575.727 198 575.727C194.636 575.727 192.008 577.386 190.114 580.705C188.22 584.008 187.273 588.682 187.273 594.727C187.273 598.758 187.697 602.182 188.545 605C189.394 607.818 190.614 609.962 192.205 611.432C193.811 612.902 195.742 613.636 198 613.636ZM238 618.636C234.576 618.636 231.659 617.705 229.25 615.841C226.841 613.962 225 611.242 223.727 607.682C222.455 604.106 221.818 599.788 221.818 594.727C221.818 589.697 222.455 585.402 223.727 581.841C225.015 578.265 226.864 575.538 229.273 573.659C231.697 571.765 234.606 570.818 238 570.818C241.394 570.818 244.295 571.765 246.705 573.659C249.129 575.538 250.977 578.265 252.25 581.841C253.538 585.402 254.182 589.697 254.182 594.727C254.182 599.788 253.545 604.106 252.273 607.682C251 611.242 249.159 613.962 246.75 615.841C244.341 617.705 241.424 618.636 238 618.636ZM238 613.636C241.394 613.636 244.03 612 245.909 608.727C247.788 605.455 248.727 600.788 248.727 594.727C248.727 590.697 248.295 587.265 247.432 584.432C246.583 581.598 245.356 579.439 243.75 577.955C242.159 576.47 240.242 575.727 238 575.727C234.636 575.727 232.008 577.386 230.114 580.705C228.22 584.008 227.273 588.682 227.273 594.727C227.273 598.758 227.697 602.182 228.545 605C229.394 607.818 230.614 609.962 232.205 611.432C233.811 612.902 235.742 613.636 238 613.636Z" fill="white"/>
<path d="M332 618.636C328.576 618.636 325.659 617.705 323.25 615.841C320.841 613.962 319 611.242 317.727 607.682C316.455 604.106 315.818 599.788 315.818 594.727C315.818 589.697 316.455 585.402 317.727 581.841C319.015 578.265 320.864 575.538 323.273 573.659C325.697 571.765 328.606 570.818 332 570.818C335.394 570.818 338.295 571.765 340.705 573.659C343.129 575.538 344.977 578.265 346.25 581.841C347.538 585.402 348.182 589.697 348.182 594.727C348.182 599.788 347.545 604.106 346.273 607.682C345 611.242 343.159 613.962 340.75 615.841C338.341 617.705 335.424 618.636 332 618.636ZM332 613.636C335.394 613.636 338.03 612 339.909 608.727C341.788 605.455 342.727 600.788 342.727 594.727C342.727 590.697 342.295 587.265 341.432 584.432C340.583 581.598 339.356 579.439 337.75 577.955C336.159 576.47 334.242 575.727 332 575.727C328.636 575.727 326.008 577.386 324.114 580.705C322.22 584.008 321.273 588.682 321.273 594.727C321.273 598.758 321.697 602.182 322.545 605C323.394 607.818 324.614 609.962 326.205 611.432C327.811 612.902 329.742 613.636 332 613.636Z" fill="white"/>
<path d="M452.818 628.364C451.697 628.364 450.735 627.962 449.932 627.159C449.129 626.356 448.727 625.394 448.727 624.273C448.727 623.152 449.129 622.189 449.932 621.386C450.735 620.583 451.697 620.182 452.818 620.182C453.939 620.182 454.902 620.583 455.705 621.386C456.508 622.189 456.909 623.152 456.909 624.273C456.909 625.015 456.72 625.697 456.341 626.318C455.977 626.939 455.485 627.439 454.864 627.818C454.258 628.182 453.576 628.364 452.818 628.364Z" fill="white"/>
<path d="M449.818 132.636L450.182 122.636L441.727 128L439.545 124.182L448.455 119.545L439.545 114.909L441.727 111.091L450.182 116.455L449.818 106.455H454.182L453.818 116.455L462.273 111.091L464.455 114.909L455.545 119.545L464.455 124.182L462.273 128L453.818 122.636L454.182 132.636H449.818Z" fill="white"/>
<path d="M342.364 104.273L327.364 160H322.455L337.455 104.273H342.364Z" fill="white"/>
<path d="M177.545 144H171.636L188.727 97.4545H194.545L211.636 144H205.727L191.818 104.818H191.455L177.545 144ZM179.727 125.818H203.545V130.818H179.727V125.818ZM254.153 112H248.517C248.184 110.379 247.6 108.955 246.767 107.727C245.949 106.5 244.949 105.47 243.767 104.636C242.6 103.788 241.305 103.152 239.881 102.727C238.456 102.303 236.972 102.091 235.426 102.091C232.608 102.091 230.055 102.803 227.767 104.227C225.494 105.652 223.684 107.75 222.335 110.523C221.002 113.295 220.335 116.697 220.335 120.727C220.335 124.758 221.002 128.159 222.335 130.932C223.684 133.705 225.494 135.803 227.767 137.227C230.055 138.652 232.608 139.364 235.426 139.364C236.972 139.364 238.456 139.152 239.881 138.727C241.305 138.303 242.6 137.674 243.767 136.841C244.949 135.992 245.949 134.955 246.767 133.727C247.6 132.485 248.184 131.061 248.517 129.455H254.153C253.729 131.833 252.956 133.962 251.835 135.841C250.714 137.72 249.32 139.318 247.653 140.636C245.987 141.939 244.116 142.932 242.04 143.614C239.979 144.295 237.775 144.636 235.426 144.636C231.456 144.636 227.926 143.667 224.835 141.727C221.744 139.788 219.313 137.03 217.54 133.455C215.767 129.879 214.881 125.636 214.881 120.727C214.881 115.818 215.767 111.576 217.54 108C219.313 104.424 221.744 101.667 224.835 99.7273C227.926 97.7879 231.456 96.8182 235.426 96.8182C237.775 96.8182 239.979 97.1591 242.04 97.8409C244.116 98.5227 245.987 99.5227 247.653 100.841C249.32 102.144 250.714 103.735 251.835 105.614C252.956 107.477 253.729 109.606 254.153 112Z" fill="white"/>
<path d="M43.0909 701H37.4545C37.1212 699.379 36.5379 697.955 35.7045 696.727C34.8864 695.5 33.8864 694.47 32.7045 693.636C31.5379 692.788 30.2424 692.152 28.8182 691.727C27.3939 691.303 25.9091 691.091 24.3636 691.091C21.5455 691.091 18.9924 691.803 16.7045 693.227C14.4318 694.652 12.6212 696.75 11.2727 699.523C9.93939 702.295 9.27273 705.697 9.27273 709.727C9.27273 713.758 9.93939 717.159 11.2727 719.932C12.6212 722.705 14.4318 724.803 16.7045 726.227C18.9924 727.652 21.5455 728.364 24.3636 728.364C25.9091 728.364 27.3939 728.152 28.8182 727.727C30.2424 727.303 31.5379 726.674 32.7045 725.841C33.8864 724.992 34.8864 723.955 35.7045 722.727C36.5379 721.485 37.1212 720.061 37.4545 718.455H43.0909C42.6667 720.833 41.8939 722.962 40.7727 724.841C39.6515 726.72 38.2576 728.318 36.5909 729.636C34.9242 730.939 33.053 731.932 30.9773 732.614C28.9167 733.295 26.7121 733.636 24.3636 733.636C20.3939 733.636 16.8636 732.667 13.7727 730.727C10.6818 728.788 8.25 726.03 6.47727 722.455C4.70455 718.879 3.81818 714.636 3.81818 709.727C3.81818 704.818 4.70455 700.576 6.47727 697C8.25 693.424 10.6818 690.667 13.7727 688.727C16.8636 686.788 20.3939 685.818 24.3636 685.818C26.7121 685.818 28.9167 686.159 30.9773 686.841C33.053 687.523 34.9242 688.523 36.5909 689.841C38.2576 691.144 39.6515 692.735 40.7727 694.614C41.8939 696.477 42.6667 698.606 43.0909 701ZM61.7443 733.818C59.5322 733.818 57.5246 733.402 55.7216 732.568C53.9186 731.72 52.4867 730.5 51.4261 728.909C50.3655 727.303 49.8352 725.364 49.8352 723.091C49.8352 721.091 50.2292 719.47 51.017 718.227C51.8049 716.97 52.858 715.985 54.1761 715.273C55.4943 714.561 56.9489 714.03 58.5398 713.682C60.1458 713.318 61.7595 713.03 63.3807 712.818C65.5019 712.545 67.2216 712.341 68.5398 712.205C69.8731 712.053 70.8428 711.803 71.4489 711.455C72.0701 711.106 72.3807 710.5 72.3807 709.636V709.455C72.3807 707.212 71.767 705.47 70.5398 704.227C69.3277 702.985 67.4867 702.364 65.017 702.364C62.4564 702.364 60.4489 702.924 58.9943 704.045C57.5398 705.167 56.517 706.364 55.9261 707.636L50.8352 705.818C51.7443 703.697 52.9564 702.045 54.4716 700.864C56.0019 699.667 57.6686 698.833 59.4716 698.364C61.2898 697.879 63.0777 697.636 64.8352 697.636C65.9564 697.636 67.2443 697.773 68.6989 698.045C70.1686 698.303 71.5852 698.841 72.9489 699.659C74.3277 700.477 75.4716 701.712 76.3807 703.364C77.2898 705.015 77.7443 707.227 77.7443 710V733H72.3807V728.273H72.108C71.7443 729.03 71.1383 729.841 70.2898 730.705C69.4413 731.568 68.3125 732.303 66.9034 732.909C65.4943 733.515 63.7746 733.818 61.7443 733.818ZM62.5625 729C64.6837 729 66.4716 728.583 67.9261 727.75C69.3958 726.917 70.5019 725.841 71.2443 724.523C72.0019 723.205 72.3807 721.818 72.3807 720.364V715.455C72.1534 715.727 71.6534 715.977 70.8807 716.205C70.1231 716.417 69.2443 716.606 68.2443 716.773C67.2595 716.924 66.2973 717.061 65.358 717.182C64.4337 717.288 63.6837 717.379 63.108 717.455C61.714 717.636 60.411 717.932 59.1989 718.341C58.0019 718.735 57.0322 719.333 56.2898 720.136C55.5625 720.924 55.1989 722 55.1989 723.364C55.1989 725.227 55.8883 726.636 57.267 727.591C58.661 728.53 60.4261 729 62.5625 729ZM92.8977 686.455V733H87.5341V686.455H92.8977ZM116.903 733.727C113.631 733.727 110.813 732.955 108.449 731.409C106.085 729.864 104.267 727.735 102.994 725.023C101.722 722.311 101.085 719.212 101.085 715.727C101.085 712.182 101.737 709.053 103.04 706.341C104.358 703.614 106.191 701.485 108.54 699.955C110.903 698.409 113.661 697.636 116.812 697.636C119.267 697.636 121.479 698.091 123.449 699C125.419 699.909 127.032 701.182 128.29 702.818C129.547 704.455 130.328 706.364 130.631 708.545H125.267C124.858 706.955 123.949 705.545 122.54 704.318C121.146 703.076 119.267 702.455 116.903 702.455C114.813 702.455 112.979 703 111.403 704.091C109.843 705.167 108.623 706.689 107.744 708.659C106.881 710.614 106.449 712.909 106.449 715.545C106.449 718.242 106.873 720.591 107.722 722.591C108.585 724.591 109.797 726.144 111.358 727.25C112.934 728.356 114.782 728.909 116.903 728.909C118.297 728.909 119.562 728.667 120.699 728.182C121.835 727.697 122.797 727 123.585 726.091C124.373 725.182 124.934 724.091 125.267 722.818H130.631C130.328 724.879 129.578 726.735 128.381 728.386C127.199 730.023 125.631 731.326 123.676 732.295C121.737 733.25 119.479 733.727 116.903 733.727ZM160.472 718.727V698.091H165.835V733H160.472V727.091H160.108C159.29 728.864 158.017 730.371 156.29 731.614C154.563 732.841 152.381 733.455 149.744 733.455C147.562 733.455 145.623 732.977 143.926 732.023C142.229 731.053 140.896 729.598 139.926 727.659C138.956 725.705 138.472 723.242 138.472 720.273V698.091H143.835V719.909C143.835 722.455 144.547 724.485 145.972 726C147.411 727.515 149.244 728.273 151.472 728.273C152.805 728.273 154.161 727.932 155.54 727.25C156.934 726.568 158.1 725.523 159.04 724.114C159.994 722.705 160.472 720.909 160.472 718.727ZM181.023 686.455V733H175.659V686.455H181.023ZM201.119 733.818C198.907 733.818 196.9 733.402 195.097 732.568C193.294 731.72 191.862 730.5 190.801 728.909C189.741 727.303 189.21 725.364 189.21 723.091C189.21 721.091 189.604 719.47 190.392 718.227C191.18 716.97 192.233 715.985 193.551 715.273C194.869 714.561 196.324 714.03 197.915 713.682C199.521 713.318 201.134 713.03 202.756 712.818C204.877 712.545 206.597 712.341 207.915 712.205C209.248 712.053 210.218 711.803 210.824 711.455C211.445 711.106 211.756 710.5 211.756 709.636V709.455C211.756 707.212 211.142 705.47 209.915 704.227C208.703 702.985 206.862 702.364 204.392 702.364C201.831 702.364 199.824 702.924 198.369 704.045C196.915 705.167 195.892 706.364 195.301 707.636L190.21 705.818C191.119 703.697 192.331 702.045 193.847 700.864C195.377 699.667 197.044 698.833 198.847 698.364C200.665 697.879 202.453 697.636 204.21 697.636C205.331 697.636 206.619 697.773 208.074 698.045C209.544 698.303 210.96 698.841 212.324 699.659C213.703 700.477 214.847 701.712 215.756 703.364C216.665 705.015 217.119 707.227 217.119 710V733H211.756V728.273H211.483C211.119 729.03 210.513 729.841 209.665 730.705C208.816 731.568 207.688 732.303 206.278 732.909C204.869 733.515 203.15 733.818 201.119 733.818ZM201.938 729C204.059 729 205.847 728.583 207.301 727.75C208.771 726.917 209.877 725.841 210.619 724.523C211.377 723.205 211.756 721.818 211.756 720.364V715.455C211.528 715.727 211.028 715.977 210.256 716.205C209.498 716.417 208.619 716.606 207.619 716.773C206.634 716.924 205.672 717.061 204.733 717.182C203.809 717.288 203.059 717.379 202.483 717.455C201.089 717.636 199.786 717.932 198.574 718.341C197.377 718.735 196.407 719.333 195.665 720.136C194.938 720.924 194.574 722 194.574 723.364C194.574 725.227 195.263 726.636 196.642 727.591C198.036 728.53 199.801 729 201.938 729ZM242.091 698.091V702.636H224V698.091H242.091ZM229.273 689.727H234.636V723C234.636 724.515 234.856 725.652 235.295 726.409C235.75 727.152 236.326 727.652 237.023 727.909C237.735 728.152 238.485 728.273 239.273 728.273C239.864 728.273 240.348 728.242 240.727 728.182C241.106 728.106 241.409 728.045 241.636 728L242.727 732.818C242.364 732.955 241.856 733.091 241.205 733.227C240.553 733.379 239.727 733.455 238.727 733.455C237.212 733.455 235.727 733.129 234.273 732.477C232.833 731.826 231.636 730.833 230.682 729.5C229.742 728.167 229.273 726.485 229.273 724.455V689.727ZM263.966 733.727C260.814 733.727 258.049 732.977 255.67 731.477C253.307 729.977 251.458 727.879 250.125 725.182C248.807 722.485 248.148 719.333 248.148 715.727C248.148 712.091 248.807 708.917 250.125 706.205C251.458 703.492 253.307 701.386 255.67 699.886C258.049 698.386 260.814 697.636 263.966 697.636C267.117 697.636 269.875 698.386 272.239 699.886C274.617 701.386 276.466 703.492 277.784 706.205C279.117 708.917 279.784 712.091 279.784 715.727C279.784 719.333 279.117 722.485 277.784 725.182C276.466 727.879 274.617 729.977 272.239 731.477C269.875 732.977 267.117 733.727 263.966 733.727ZM263.966 728.909C266.36 728.909 268.33 728.295 269.875 727.068C271.42 725.841 272.564 724.227 273.307 722.227C274.049 720.227 274.42 718.061 274.42 715.727C274.42 713.394 274.049 711.22 273.307 709.205C272.564 707.189 271.42 705.561 269.875 704.318C268.33 703.076 266.36 702.455 263.966 702.455C261.572 702.455 259.602 703.076 258.057 704.318C256.511 705.561 255.367 707.189 254.625 709.205C253.883 711.22 253.511 713.394 253.511 715.727C253.511 718.061 253.883 720.227 254.625 722.227C255.367 724.227 256.511 725.841 258.057 727.068C259.602 728.295 261.572 728.909 263.966 728.909ZM287.972 733V698.091H293.153V703.364H293.517C294.153 701.636 295.305 700.235 296.972 699.159C298.638 698.083 300.517 697.545 302.608 697.545C303.002 697.545 303.494 697.553 304.085 697.568C304.676 697.583 305.123 697.606 305.426 697.636V703.091C305.244 703.045 304.828 702.977 304.176 702.886C303.54 702.78 302.866 702.727 302.153 702.727C300.456 702.727 298.941 703.083 297.608 703.795C296.29 704.492 295.244 705.462 294.472 706.705C293.714 707.932 293.335 709.333 293.335 710.909V733H287.972ZM330.511 733V686.455H335.875V703.636H336.33C336.723 703.03 337.269 702.258 337.966 701.318C338.678 700.364 339.693 699.515 341.011 698.773C342.345 698.015 344.148 697.636 346.42 697.636C349.36 697.636 351.951 698.371 354.193 699.841C356.436 701.311 358.186 703.394 359.443 706.091C360.701 708.788 361.33 711.97 361.33 715.636C361.33 719.333 360.701 722.538 359.443 725.25C358.186 727.947 356.443 730.038 354.216 731.523C351.989 732.992 349.42 733.727 346.511 733.727C344.269 733.727 342.473 733.356 341.125 732.614C339.777 731.856 338.739 731 338.011 730.045C337.284 729.076 336.723 728.273 336.33 727.636H335.693V733H330.511ZM335.784 715.545C335.784 718.182 336.17 720.508 336.943 722.523C337.716 724.523 338.845 726.091 340.33 727.227C341.814 728.348 343.633 728.909 345.784 728.909C348.027 728.909 349.898 728.318 351.398 727.136C352.913 725.939 354.049 724.333 354.807 722.318C355.58 720.288 355.966 718.03 355.966 715.545C355.966 713.091 355.587 710.879 354.83 708.909C354.087 706.924 352.958 705.356 351.443 704.205C349.943 703.038 348.057 702.455 345.784 702.455C343.602 702.455 341.769 703.008 340.284 704.114C338.799 705.205 337.678 706.735 336.92 708.705C336.163 710.659 335.784 712.939 335.784 715.545ZM371.739 746.091C370.83 746.091 370.019 746.015 369.307 745.864C368.595 745.727 368.102 745.591 367.83 745.455L369.193 740.727C370.496 741.061 371.648 741.182 372.648 741.091C373.648 741 374.534 740.553 375.307 739.75C376.095 738.962 376.814 737.682 377.466 735.909L378.466 733.182L365.557 698.091H371.375L381.011 725.909H381.375L391.011 698.091H396.83L382.011 738.091C381.345 739.894 380.519 741.386 379.534 742.568C378.549 743.765 377.405 744.652 376.102 745.227C374.814 745.803 373.36 746.091 371.739 746.091ZM460.091 701H454.455C454.121 699.379 453.538 697.955 452.705 696.727C451.886 695.5 450.886 694.47 449.705 693.636C448.538 692.788 447.242 692.152 445.818 691.727C444.394 691.303 442.909 691.091 441.364 691.091C438.545 691.091 435.992 691.803 433.705 693.227C431.432 694.652 429.621 696.75 428.273 699.523C426.939 702.295 426.273 705.697 426.273 709.727C426.273 713.758 426.939 717.159 428.273 719.932C429.621 722.705 431.432 724.803 433.705 726.227C435.992 727.652 438.545 728.364 441.364 728.364C442.909 728.364 444.394 728.152 445.818 727.727C447.242 727.303 448.538 726.674 449.705 725.841C450.886 724.992 451.886 723.955 452.705 722.727C453.538 721.485 454.121 720.061 454.455 718.455H460.091C459.667 720.833 458.894 722.962 457.773 724.841C456.652 726.72 455.258 728.318 453.591 729.636C451.924 730.939 450.053 731.932 447.977 732.614C445.917 733.295 443.712 733.636 441.364 733.636C437.394 733.636 433.864 732.667 430.773 730.727C427.682 728.788 425.25 726.03 423.477 722.455C421.705 718.879 420.818 714.636 420.818 709.727C420.818 704.818 421.705 700.576 423.477 697C425.25 693.424 427.682 690.667 430.773 688.727C433.864 686.788 437.394 685.818 441.364 685.818C443.712 685.818 445.917 686.159 447.977 686.841C450.053 687.523 451.924 688.523 453.591 689.841C455.258 691.144 456.652 692.735 457.773 694.614C458.894 696.477 459.667 698.606 460.091 701ZM473.835 712V733H468.472V686.455H473.835V703.545H474.29C475.108 701.742 476.335 700.311 477.972 699.25C479.623 698.174 481.82 697.636 484.562 697.636C486.941 697.636 489.025 698.114 490.812 699.068C492.6 700.008 493.987 701.455 494.972 703.409C495.972 705.348 496.472 707.818 496.472 710.818V733H491.108V711.182C491.108 708.409 490.388 706.265 488.949 704.75C487.525 703.22 485.547 702.455 483.017 702.455C481.259 702.455 479.684 702.826 478.29 703.568C476.911 704.311 475.82 705.394 475.017 706.818C474.229 708.242 473.835 709.97 473.835 712ZM520.92 733.727C517.557 733.727 514.655 732.985 512.216 731.5C509.792 730 507.92 727.909 506.602 725.227C505.299 722.53 504.648 719.394 504.648 715.818C504.648 712.242 505.299 709.091 506.602 706.364C507.92 703.621 509.754 701.485 512.102 699.955C514.466 698.409 517.223 697.636 520.375 697.636C522.193 697.636 523.989 697.939 525.761 698.545C527.534 699.152 529.148 700.136 530.602 701.5C532.057 702.848 533.216 704.636 534.08 706.864C534.943 709.091 535.375 711.833 535.375 715.091V717.364H508.466V712.727H529.92C529.92 710.758 529.527 709 528.739 707.455C527.966 705.909 526.86 704.689 525.42 703.795C523.996 702.902 522.314 702.455 520.375 702.455C518.239 702.455 516.39 702.985 514.83 704.045C513.284 705.091 512.095 706.455 511.261 708.136C510.428 709.818 510.011 711.621 510.011 713.545V716.636C510.011 719.273 510.466 721.508 511.375 723.341C512.299 725.159 513.58 726.545 515.216 727.5C516.852 728.439 518.754 728.909 520.92 728.909C522.33 728.909 523.602 728.712 524.739 728.318C525.89 727.909 526.883 727.303 527.716 726.5C528.549 725.682 529.193 724.667 529.648 723.455L534.83 724.909C534.284 726.667 533.367 728.212 532.08 729.545C530.792 730.864 529.201 731.894 527.307 732.636C525.413 733.364 523.284 733.727 520.92 733.727ZM543.534 746.091V698.091H548.716V703.636H549.352C549.746 703.03 550.292 702.258 550.989 701.318C551.701 700.364 552.716 699.515 554.034 698.773C555.367 698.015 557.17 697.636 559.443 697.636C562.383 697.636 564.973 698.371 567.216 699.841C569.458 701.311 571.208 703.394 572.466 706.091C573.723 708.788 574.352 711.97 574.352 715.636C574.352 719.333 573.723 722.538 572.466 725.25C571.208 727.947 569.466 730.038 567.239 731.523C565.011 732.992 562.443 733.727 559.534 733.727C557.292 733.727 555.496 733.356 554.148 732.614C552.799 731.856 551.761 731 551.034 730.045C550.307 729.076 549.746 728.273 549.352 727.636H548.898V746.091H543.534ZM548.807 715.545C548.807 718.182 549.193 720.508 549.966 722.523C550.739 724.523 551.867 726.091 553.352 727.227C554.837 728.348 556.655 728.909 558.807 728.909C561.049 728.909 562.92 728.318 564.42 727.136C565.936 725.939 567.072 724.333 567.83 722.318C568.602 720.288 568.989 718.03 568.989 715.545C568.989 713.091 568.61 710.879 567.852 708.909C567.11 706.924 565.981 705.356 564.466 704.205C562.966 703.038 561.08 702.455 558.807 702.455C556.625 702.455 554.792 703.008 553.307 704.114C551.822 705.205 550.701 706.735 549.943 708.705C549.186 710.659 548.807 712.939 548.807 715.545ZM597.17 733.727C593.807 733.727 590.905 732.985 588.466 731.5C586.042 730 584.17 727.909 582.852 725.227C581.549 722.53 580.898 719.394 580.898 715.818C580.898 712.242 581.549 709.091 582.852 706.364C584.17 703.621 586.004 701.485 588.352 699.955C590.716 698.409 593.473 697.636 596.625 697.636C598.443 697.636 600.239 697.939 602.011 698.545C603.784 699.152 605.398 700.136 606.852 701.5C608.307 702.848 609.466 704.636 610.33 706.864C611.193 709.091 611.625 711.833 611.625 715.091V717.364H584.716V712.727H606.17C606.17 710.758 605.777 709 604.989 707.455C604.216 705.909 603.11 704.689 601.67 703.795C600.246 702.902 598.564 702.455 596.625 702.455C594.489 702.455 592.64 702.985 591.08 704.045C589.534 705.091 588.345 706.455 587.511 708.136C586.678 709.818 586.261 711.621 586.261 713.545V716.636C586.261 719.273 586.716 721.508 587.625 723.341C588.549 725.159 589.83 726.545 591.466 727.5C593.102 728.439 595.004 728.909 597.17 728.909C598.58 728.909 599.852 728.712 600.989 728.318C602.14 727.909 603.133 727.303 603.966 726.5C604.799 725.682 605.443 724.667 605.898 723.455L611.08 724.909C610.534 726.667 609.617 728.212 608.33 729.545C607.042 730.864 605.451 731.894 603.557 732.636C601.663 733.364 599.534 733.727 597.17 733.727ZM634.966 698.091V702.636H616.875V698.091H634.966ZM622.148 689.727H627.511V723C627.511 724.515 627.731 725.652 628.17 726.409C628.625 727.152 629.201 727.652 629.898 727.909C630.61 728.152 631.36 728.273 632.148 728.273C632.739 728.273 633.223 728.242 633.602 728.182C633.981 728.106 634.284 728.045 634.511 728L635.602 732.818C635.239 732.955 634.731 733.091 634.08 733.227C633.428 733.379 632.602 733.455 631.602 733.455C630.087 733.455 628.602 733.129 627.148 732.477C625.708 731.826 624.511 730.833 623.557 729.5C622.617 728.167 622.148 726.485 622.148 724.455V689.727ZM667.136 705.909L662.318 707.273C662.015 706.47 661.568 705.689 660.977 704.932C660.402 704.159 659.614 703.523 658.614 703.023C657.614 702.523 656.333 702.273 654.773 702.273C652.636 702.273 650.856 702.765 649.432 703.75C648.023 704.72 647.318 705.955 647.318 707.455C647.318 708.788 647.803 709.841 648.773 710.614C649.742 711.386 651.258 712.03 653.318 712.545L658.5 713.818C661.621 714.576 663.947 715.735 665.477 717.295C667.008 718.841 667.773 720.833 667.773 723.273C667.773 725.273 667.197 727.061 666.045 728.636C664.909 730.212 663.318 731.455 661.273 732.364C659.227 733.273 656.848 733.727 654.136 733.727C650.576 733.727 647.629 732.955 645.295 731.409C642.962 729.864 641.485 727.606 640.864 724.636L645.955 723.364C646.439 725.242 647.356 726.652 648.705 727.591C650.068 728.53 651.848 729 654.045 729C656.545 729 658.53 728.47 660 727.409C661.485 726.333 662.227 725.045 662.227 723.545C662.227 722.333 661.803 721.318 660.955 720.5C660.106 719.667 658.803 719.045 657.045 718.636L651.227 717.273C648.03 716.515 645.682 715.341 644.182 713.75C642.697 712.144 641.955 710.136 641.955 707.727C641.955 705.758 642.508 704.015 643.614 702.5C644.735 700.985 646.258 699.795 648.182 698.932C650.121 698.068 652.318 697.636 654.773 697.636C658.227 697.636 660.939 698.394 662.909 699.909C664.894 701.424 666.303 703.424 667.136 705.909ZM694.574 733V686.455H700.21V709.545H700.756L721.665 686.455H729.028L709.483 707.455L729.028 733H722.21L706.028 711.364L700.21 717.909V733H694.574ZM737.784 733V698.091H743.148V733H737.784ZM740.511 692.273C739.466 692.273 738.564 691.917 737.807 691.205C737.064 690.492 736.693 689.636 736.693 688.636C736.693 687.636 737.064 686.78 737.807 686.068C738.564 685.356 739.466 685 740.511 685C741.557 685 742.451 685.356 743.193 686.068C743.951 686.78 744.33 687.636 744.33 688.636C744.33 689.636 743.951 690.492 743.193 691.205C742.451 691.917 741.557 692.273 740.511 692.273ZM752.972 733V698.091H758.153V703.364H758.517C759.153 701.636 760.305 700.235 761.972 699.159C763.638 698.083 765.517 697.545 767.608 697.545C768.002 697.545 768.494 697.553 769.085 697.568C769.676 697.583 770.123 697.606 770.426 697.636V703.091C770.244 703.045 769.828 702.977 769.176 702.886C768.54 702.78 767.866 702.727 767.153 702.727C765.456 702.727 763.941 703.083 762.608 703.795C761.29 704.492 760.244 705.462 759.472 706.705C758.714 707.932 758.335 709.333 758.335 710.909V733H752.972ZM776.784 733V698.091H782.148V733H776.784ZM779.511 692.273C778.466 692.273 777.564 691.917 776.807 691.205C776.064 690.492 775.693 689.636 775.693 688.636C775.693 687.636 776.064 686.78 776.807 686.068C777.564 685.356 778.466 685 779.511 685C780.557 685 781.451 685.356 782.193 686.068C782.951 686.78 783.33 687.636 783.33 688.636C783.33 689.636 782.951 690.492 782.193 691.205C781.451 691.917 780.557 692.273 779.511 692.273ZM797.335 686.455V733H791.972V686.455H797.335ZM812.523 686.455V733H807.159V686.455H812.523Z" fill="url(#paint0_linear_1_39)"/>
<defs>
<linearGradient id="paint0_linear_1_39" x1="984" y1="690" x2="-50" y2="682" gradientUnits="userSpaceOnUse">
<stop stop-color="#1E4F00"/>
<stop offset="1" stop-opacity="0"/>
</linearGradient>
</defs>
</svg>
